<svg xmlns="http://www.w3.org/2000/svg" xmlns:xlink="http://www.w3.org/1999/xlink" width="427" height="308" viewBox="0 0 427 308">
  <defs>
    <clipPath id="clip-path">
      <rect id="CACHE" width="954" height="308" transform="translate(147 2367)" fill="#fff" stroke="#707070" stroke-width="1"/>
    </clipPath>
    <linearGradient id="linear-gradient" x1="0.678" y1="0.259" x2="0.116" y2="0.552" gradientUnits="objectBoundingBox">
      <stop offset="0" stop-color="#f9f6fb"/>
      <stop offset="1" stop-color="#e3e3f2"/>
    </linearGradient>
    <filter id="FORME_POUR_OMBRE" x="-170.405" y="-260.591" width="1015.276" height="853.343" filterUnits="userSpaceOnUse">
      <feOffset dx="-3" input="SourceAlpha"/>
      <feGaussianBlur stdDeviation="15" result="blur"/>
      <feFlood flood-opacity="0.161"/>
      <feComposite operator="in" in2="blur"/>
      <feComposite in="SourceGraphic"/>
    </filter>
    <linearGradient id="linear-gradient-2" x1="0.678" y1="0.259" x2="0.116" y2="0.552" gradientUnits="objectBoundingBox">
      <stop offset="0" stop-color="#d8e0f1"/>
      <stop offset="1" stop-color="#e2d0eb"/>
    </linearGradient>
    <clipPath id="clip-VARIANTES_BANNER_8">
      <rect width="427" height="308"/>
    </clipPath>
  </defs>
  <g id="VARIANTES_BANNER_8" data-name="VARIANTES BANNER – 8" clip-path="url(#clip-VARIANTES_BANNER_8)">
    <g id="Groupe_3" data-name="Groupe 3" transform="translate(-674 -2367)" clip-path="url(#clip-path)">
      <g transform="matrix(1, 0, 0, 1, 674, 2367)" filter="url(#FORME_POUR_OMBRE)">
        <path id="FORME_POUR_OMBRE-2" data-name="FORME POUR OMBRE" d="M-5748.188-451.783s42.691-169.352,183.58-196.771,180.544,5.765,284.1-84,135.325-103.653,215.552-95.886,98.452,338.617,98.452,338.617,8.429,165.078-222.935,161.526-517.455-37.446-554.486-70.546S-5748.188-451.783-5748.188-451.783Z" transform="translate(5530.66 -1306.23) rotate(-22)" fill="url(#linear-gradient)"/>
      </g>
      <path id="FORME" d="M6267.3,1972.633h-.015c-8.461,0-14.958-.794-19.308-2.359-8.547-3.076-15.341-6.841-20.19-11.19a27.218,27.218,0,0,1-8.25-12.374,23.867,23.867,0,0,1-.873-9.071,29.678,29.678,0,0,1,1.778-7.634,31.68,31.68,0,0,1,3.75-7.226,273.047,273.047,0,0,1-1.847-28.255c-.207-10.125.011-20.424.646-30.611a352.565,352.565,0,0,1,4.318-37.415c5.272-30.789,14.535-58.609,27.53-82.689a213.888,213.888,0,0,1,12.255-20.021,199.07,199.07,0,0,1,14.9-18.976,190.516,190.516,0,0,1,38.7-33.246c7.915-5.142,16-10.181,24.019-14.975h103.013a19.664,19.664,0,0,0-8.037-16.367,20.067,20.067,0,0,0-15.758-3.526,32.355,32.355,0,0,0-17.866-11.252c-1-.235-2.035-.424-3.064-.562,3.938-1.984,7.8-3.911,11.2-5.611l.015-.007c14.327-7.16,27.86-13.923,40.2-21.072a225.807,225.807,0,0,0,34.736-24.23,209.337,209.337,0,0,0,31.869-34.578c10.725-14.439,21.067-31.489,31.618-52.123,17.02-33.285,29.684-56.345,41.065-74.769,12.532-20.287,23.752-35.3,35.313-47.242a146.944,146.944,0,0,1,38.108-28.649c13.052-6.881,28.3-12.738,49.451-18.99a30.868,30.868,0,0,1,8.756-1.243,42.78,42.78,0,0,1,15.318,3.126,80.691,80.691,0,0,1,16.27,8.833,152.015,152.015,0,0,1,16.953,13.726c5.563,5.141,11.407,11.13,17.369,17.8,20.629,23.084,43.6,55.274,68.285,95.673,9.7,15.873,19.683,33.065,29.68,51.1,8,14.432,16.025,29.429,23.851,44.575,13.406,25.947,21.568,43.315,21.649,43.488a88.822,88.822,0,0,1,3.39,9.038,151.423,151.423,0,0,1,5.651,24.359,154.261,154.261,0,0,1,1.134,35.551,147.064,147.064,0,0,1-10.161,42.612,157.232,157.232,0,0,1-17.46,31.816,191.527,191.527,0,0,1-28.639,31.836,240.474,240.474,0,0,1-19.237,15.483c-7.117,5.162-14.823,10.195-22.9,14.956-8.4,4.947-17.432,9.743-26.86,14.253-9.775,4.676-20.241,9.175-31.107,13.373-47.792,18.461-99.149,36.776-152.645,54.435-25.688,8.48-51.631,16.722-77.106,24.495-25.3,7.721-50.279,15.02-74.233,21.7-24.061,6.705-47.212,12.815-68.811,18.159-21.928,5.426-42.4,10.1-60.841,13.885-18.9,3.881-35.828,6.866-50.322,8.873C6289.6,1971.582,6277.06,1972.632,6267.3,1972.633Z" transform="translate(-5518.404 872.409)" fill="url(#linear-gradient-2)"/>
      <path id="NUAGE_2" data-name="NUAGE 2" d="M148.111,32H37.021a10.265,10.265,0,0,1,.91-3.953,10.525,10.525,0,0,1,5.587-5.382,10.565,10.565,0,0,1,4.034-.792,10.7,10.7,0,0,1,2.349.26,10.553,10.553,0,0,1,5.7,3.446,14.12,14.12,0,0,1,2.115-3.618,14.348,14.348,0,0,1,11.208-5.353,14.694,14.694,0,0,1,1.675.1A32.342,32.342,0,0,1,90.163,1.21,32.882,32.882,0,0,1,106.45.854a32.374,32.374,0,0,1,17.868,11.253,20.075,20.075,0,0,1,15.756,3.526A19.687,19.687,0,0,1,148.111,32Z" transform="translate(977.212 2442)" fill="#fff" opacity="0.599"/>
      <path id="NUAGE_1" data-name="NUAGE 1" d="M103.114,19H37.021a6.085,6.085,0,0,1,.541-2.347,6.178,6.178,0,0,1,1.352-1.91,6.286,6.286,0,0,1,4.372-1.755,6.375,6.375,0,0,1,1.4.155,6.279,6.279,0,0,1,3.394,2.046,8.38,8.38,0,0,1,1.258-2.148A8.541,8.541,0,0,1,56,9.861a8.76,8.76,0,0,1,1,.057A19.24,19.24,0,0,1,68.638.719a19.6,19.6,0,0,1,9.69-.211,19.262,19.262,0,0,1,10.63,6.681,11.962,11.962,0,0,1,9.374,2.094,11.669,11.669,0,0,1,4.324,6.175A11.589,11.589,0,0,1,103.114,19Z" transform="translate(736.212 2578)" fill="#fff" opacity="0.301"/>
    </g>
  </g>
</svg>
