<svg xmlns="http://www.w3.org/2000/svg" xmlns:xlink="http://www.w3.org/1999/xlink" width="174.74" height="112.494" viewBox="0 0 174.74 112.494">
  <defs>
    <clipPath id="clip-path">
      <path id="Tracé_39" data-name="Tracé 39" d="M.4,112.494H175.14L107.837,0H.4Z" transform="translate(-0.4)"/>
    </clipPath>
    <clipPath id="clip-path-2">
      <rect id="Rectangle_33" data-name="Rectangle 33" width="82.061" height="68.071" transform="translate(0 0)" fill="none"/>
    </clipPath>
  </defs>
  <g id="LOGO" transform="translate(5054.998 -1420.477)">
    <g id="Groupe_60" data-name="Groupe 60" transform="translate(-5054.998 1420.477)" clip-path="url(#clip-path)">
      <path id="GOUTTE_ROSE" data-name="GOUTTE ROSE" d="M11.123-2098.39a60.613,60.613,0,0,1,84.469-17.045,63.442,63.442,0,0,1,19.12,20.954c22.958,40.023,53.552,79.23,86.292,100.979,37.656,25.013,61.37,23.069,72.783,5.873,13.6-20.47-8.533-45.775-45.1-79.512-59.526-56.051-145.234-133.045-78.354-233.723,46.219-69.58,146.211-90.463,255.905-17.6,48.3,32.085,83.26,71.816,107.861,116.473,9.842,17.156,10.97,40.316-1.541,59.153-17.4,26.192-52.817,33.344-78.193,16.491-8.19-5.439-13.922-12.783-18.294-20.409-15.856-29.405-40.164-58.539-70.456-78.656-29.466-19.574-56.454-23.341-67.877-6.156-11.958,18,4.976,38.684,41.826,73.781,59.516,56.051,148.508,138.767,78.908,243.545-50.027,75.312-153.3,86.937-267.1,11.353C80.623-1936.6,36.389-1983.68,9.048-2034.875c-10.114-18.526-10.98-43.871,2.075-63.515" transform="translate(-1.291 2125.891)" fill="#f9b6cc"/>
    </g>
    <g id="Groupe_61" data-name="Groupe 61" transform="translate(-5032.794 1445.118)">
      <g id="Groupe_57" data-name="Groupe 57" transform="translate(0 0)" clip-path="url(#clip-path-2)">
        <path id="Tracé_16" data-name="Tracé 16" d="M678.3,291.52a4.4,4.4,0,0,0-4.4,4.4v13.285a4.154,4.154,0,0,1-8.307,0V295.923a4.4,4.4,0,0,0-8.806,0v13.285a12.959,12.959,0,0,0,25.919,0V295.923a4.4,4.4,0,0,0-4.4-4.4" transform="translate(-628.717 -279.061)" fill="#161615"/>
        <path id="Tracé_17" data-name="Tracé 17" d="M21.516,291.511a4.4,4.4,0,0,0-4.4,4.4V309.2a4.154,4.154,0,0,1-8.307,0V295.914a4.4,4.4,0,0,0-8.806,0V309.2a12.953,12.953,0,0,0,17.113,12.273v8.743a4.4,4.4,0,0,0,8.806,0v-34.3a4.4,4.4,0,0,0-4.4-4.4" transform="translate(0 -279.052)" fill="#161615"/>
        <path id="Tracé_18" data-name="Tracé 18" d="M1326.525,12.465a12.9,12.9,0,0,0-4.153.687V4.408a4.4,4.4,0,1,0-8.806,0v34.3a4.4,4.4,0,1,0,8.806,0V25.424a4.153,4.153,0,1,1,8.307,0V38.709a4.4,4.4,0,1,0,8.806,0V25.424a12.975,12.975,0,0,0-12.96-12.96" transform="translate(-1257.423 -0.005)" fill="#161615"/>
        <path id="Tracé_19" data-name="Tracé 19" d="M662.233,1142.417v-4.6h-1.267a.785.785,0,1,1,0-1.571h4.314a.785.785,0,1,1,0,1.571h-1.246v4.6a.9.9,0,1,1-1.8,0" transform="translate(-631.965 -1087.686)" fill="#161615"/>
        <path id="Tracé_20" data-name="Tracé 20" d="M772.392,1181.037a2.761,2.761,0,1,1,2.754,2.66,2.608,2.608,0,0,1-2.754-2.66m3.864,0a1.107,1.107,0,1,0-1.11,1.236,1.115,1.115,0,0,0,1.11-1.236" transform="translate(-739.38 -1128.023)" fill="#161615"/>
        <path id="Tracé_21" data-name="Tracé 21" d="M916.585,1179.99v2.869a.806.806,0,1,1-1.612,0v-2.209a.731.731,0,0,0-.827-.838,1.248,1.248,0,0,0-.984.492v2.555a.806.806,0,1,1-1.613,0v-3.633a.8.8,0,0,1,.806-.827.817.817,0,0,1,.817.723,2.275,2.275,0,0,1,1.738-.733,1.491,1.491,0,0,1,1.675,1.6" transform="translate(-872.588 -1128.023)" fill="#161615"/>
        <path id="Tracé_22" data-name="Tracé 22" d="M1097.276,1180.408v2.409a.823.823,0,0,1-.807.848.859.859,0,0,1-.817-.6,2.048,2.048,0,0,1-1.56.628,1.67,1.67,0,0,1-1.738-1.665,1.559,1.559,0,0,1,1.738-1.592,2.02,2.02,0,0,1,1.571.587v-.639c0-.44-.377-.733-1.026-.733a2.13,2.13,0,0,0-1.036.273.628.628,0,0,1-.272.073.6.6,0,0,1-.6-.6.612.612,0,0,1,.314-.524,3.8,3.8,0,0,1,1.874-.492c1.215,0,2.356.45,2.356,2.021m-1.613,1.864v-.45a1.15,1.15,0,0,0-.9-.356c-.429,0-.807.188-.807.587s.377.586.807.586a1.122,1.122,0,0,0,.9-.366" transform="translate(-1045.667 -1128.023)" fill="#161615"/>
        <path id="Tracé_23" data-name="Tracé 23" d="M1230.473,1181.037c0,1.717-.953,2.66-2.22,2.66a1.867,1.867,0,0,1-1.5-.713v1.8a.806.806,0,0,1-1.613,0v-5.56a.814.814,0,0,1,.807-.838.861.861,0,0,1,.827.691,1.839,1.839,0,0,1,1.476-.691c1.267,0,2.22.943,2.22,2.649m-1.644,0a1.117,1.117,0,0,0-1.11-1.225,1.289,1.289,0,0,0-.963.46v1.539a1.326,1.326,0,0,0,.963.461,1.121,1.121,0,0,0,1.11-1.236" transform="translate(-1172.78 -1128.023)" fill="#161615"/>
        <path id="Tracé_24" data-name="Tracé 24" d="M1365.222,1181.037c0,1.717-.953,2.66-2.22,2.66a1.867,1.867,0,0,1-1.5-.713v1.8a.806.806,0,1,1-1.612,0v-5.56a.814.814,0,0,1,.806-.838.861.861,0,0,1,.827.691,1.84,1.84,0,0,1,1.476-.691c1.267,0,2.22.943,2.22,2.649m-1.644,0a1.117,1.117,0,0,0-1.11-1.225,1.289,1.289,0,0,0-.963.46v1.539a1.326,1.326,0,0,0,.963.461,1.121,1.121,0,0,0,1.11-1.236" transform="translate(-1301.77 -1128.023)" fill="#161615"/>
        <path id="Tracé_25" data-name="Tracé 25" d="M1491.216,1256.541a.984.984,0,1,1-.985.984,1,1,0,0,1,.985-.984" transform="translate(-1426.538 -1202.836)" fill="#161615"/>
        <path id="Tracé_26" data-name="Tracé 26" d="M662.233,1387.416v-4.6h-1.267a.785.785,0,1,1,0-1.57h4.314a.785.785,0,1,1,0,1.57h-1.246v4.6a.9.9,0,1,1-1.8,0" transform="translate(-631.965 -1322.213)" fill="#161615"/>
        <path id="Tracé_27" data-name="Tracé 27" d="M772.392,1426.037a2.761,2.761,0,1,1,2.754,2.66,2.608,2.608,0,0,1-2.754-2.66m3.864,0a1.107,1.107,0,1,0-1.11,1.236,1.115,1.115,0,0,0,1.11-1.236" transform="translate(-739.38 -1362.552)" fill="#161615"/>
        <path id="Tracé_28" data-name="Tracé 28" d="M916.585,1424.99v2.869a.806.806,0,1,1-1.612,0v-2.209a.731.731,0,0,0-.827-.838,1.247,1.247,0,0,0-.984.492v2.555a.806.806,0,1,1-1.613,0v-3.634a.8.8,0,0,1,.806-.827.817.817,0,0,1,.817.723,2.276,2.276,0,0,1,1.738-.733,1.491,1.491,0,0,1,1.675,1.6" transform="translate(-872.588 -1362.552)" fill="#161615"/>
        <path id="Tracé_29" data-name="Tracé 29" d="M1097.276,1425.409v2.409a.823.823,0,0,1-.807.848.859.859,0,0,1-.817-.6,2.046,2.046,0,0,1-1.56.628,1.669,1.669,0,0,1-1.738-1.665,1.559,1.559,0,0,1,1.738-1.592,2.021,2.021,0,0,1,1.571.586v-.639c0-.44-.377-.733-1.026-.733a2.13,2.13,0,0,0-1.036.272.623.623,0,0,1-.272.073.6.6,0,0,1-.6-.6.611.611,0,0,1,.314-.523,3.8,3.8,0,0,1,1.874-.492c1.215,0,2.356.45,2.356,2.021m-1.613,1.864v-.45a1.15,1.15,0,0,0-.9-.356c-.429,0-.807.188-.807.586s.377.587.807.587a1.123,1.123,0,0,0,.9-.367" transform="translate(-1045.667 -1362.552)" fill="#161615"/>
        <path id="Tracé_30" data-name="Tracé 30" d="M1228.462,1424.58a.755.755,0,0,1-.7.806,1.56,1.56,0,0,0-1.005.45v2.492a.806.806,0,1,1-1.613,0v-3.6a.814.814,0,0,1,.807-.838.793.793,0,0,1,.817.712,1.86,1.86,0,0,1,.649-.628.953.953,0,0,1,.366-.094.671.671,0,0,1,.681.7" transform="translate(-1172.78 -1363.021)" fill="#161615"/>
        <path id="Tracé_31" data-name="Tracé 31" d="M1304.708,1424.226v3.9c0,2.063-1.633,2.5-2.89,2.5a3.412,3.412,0,0,1-1.738-.419.666.666,0,0,1-.356-.576.675.675,0,0,1,.67-.67.621.621,0,0,1,.3.073,2.192,2.192,0,0,0,1.12.272,1.141,1.141,0,0,0,1.288-1.162v-.4a1.886,1.886,0,0,1-1.5.743c-1.235,0-2.23-.848-2.23-2.555a2.235,2.235,0,0,1,2.23-2.544,1.847,1.847,0,0,1,1.476.7.82.82,0,0,1,.828-.67.8.8,0,0,1,.8.807m-1.6,2.387v-1.351a1.3,1.3,0,0,0-.964-.451,1.126,1.126,0,0,0,0,2.252,1.3,1.3,0,0,0,.964-.45" transform="translate(-1243.842 -1362.552)" fill="#161615"/>
        <path id="Tracé_32" data-name="Tracé 32" d="M1436.818,1423.388a2.468,2.468,0,0,1,2.587,2.377c0,.576-.346.785-.964.785H1435.8a1.207,1.207,0,0,0,1.288.9,2.085,2.085,0,0,0,.88-.209.535.535,0,0,1,.262-.063.612.612,0,0,1,.241,1.173,3.624,3.624,0,0,1-1.581.345,2.656,2.656,0,1,1-.073-5.309m-1.037,2.115h2.084a.972.972,0,0,0-1.047-.869,1,1,0,0,0-1.037.869" transform="translate(-1372.832 -1362.552)" fill="#161615"/>
        <path id="Tracé_33" data-name="Tracé 33" d="M1571.461,1424.99v2.869a.806.806,0,1,1-1.613,0v-2.209a.731.731,0,0,0-.827-.838,1.248,1.248,0,0,0-.984.492v2.555a.806.806,0,1,1-1.613,0v-3.634a.8.8,0,0,1,.806-.827.818.818,0,0,1,.817.723,2.276,2.276,0,0,1,1.738-.733,1.491,1.491,0,0,1,1.675,1.6" transform="translate(-1499.474 -1362.552)" fill="#161615"/>
        <path id="Tracé_34" data-name="Tracé 34" d="M1691.628,1397.711a.664.664,0,0,1-.513.649,2.4,2.4,0,0,1-.66.084c-1.026,0-1.581-.513-1.581-1.487v-2.293h-.23a.7.7,0,0,1,0-1.4h.23v-.67a.8.8,0,1,1,1.6,0v.67h.418a.7.7,0,1,1,0,1.4h-.418v1.843a.459.459,0,0,0,.418.513h.157a.652.652,0,0,1,.576.691" transform="translate(-1615.799 -1332.299)" fill="#161615"/>
        <path id="Tracé_35" data-name="Tracé 35" d="M1777.367,1501.541a.984.984,0,1,1-.984.984,1,1,0,0,1,.984-.984" transform="translate(-1700.46 -1437.365)" fill="#161615"/>
      </g>
    </g>
  </g>
</svg>
